# Blender 4.3.2
# www.blender.org
mtllib floor.mtl
g Plane_Plane
v -1.000000 0.000000 1.000000
v 1.000000 0.000000 1.000000
v -1.000000 0.000000 -1.000000
v 1.000000 0.000000 -1.000000
vn -0.0000 1.0000 -0.0000
vt 0.000000 0.000000
vt 1.000000 0.000000
vt 1.000000 1.000000
vt 0.000000 1.000000
s 0
usemtl Material.001
f 1/1/1 2/2/1 4/3/1 3/4/1
g Torus_Torus
v -0.326295 0.146565 -0.204345
v -0.304487 0.113950 -0.185677
v -0.270118 0.099618 -0.163291
v -0.232398 0.107408 -0.143184
v -0.201432 0.135233 -0.130746
v -0.185520 0.175637 -0.129307
v -0.188924 0.217795 -0.139255
v -0.210732 0.250410 -0.157923
v -0.245101 0.264742 -0.180309
v -0.282822 0.256952 -0.200415
v -0.313787 0.229127 -0.212854
v -0.329699 0.188723 -0.214293
v -0.296512 0.139186 -0.249867
v -0.275502 0.106769 -0.229979
v -0.243313 0.092977 -0.204260
v -0.208571 0.101505 -0.179602
v -0.180584 0.130068 -0.162611
v -0.166852 0.171013 -0.157840
v -0.171054 0.213368 -0.166568
v -0.192064 0.245785 -0.186455
v -0.224253 0.259577 -0.212174
v -0.258995 0.251049 -0.236833
v -0.286982 0.222486 -0.253824
v -0.300714 0.181542 -0.258594
v -0.261363 0.134981 -0.291825
v -0.241294 0.102677 -0.270813
v -0.211679 0.089192 -0.242023
v -0.180451 0.098141 -0.213169
v -0.155980 0.127124 -0.191982
v -0.144820 0.168377 -0.184139
v -0.149964 0.210844 -0.191743
v -0.170033 0.243149 -0.212755
v -0.199648 0.256633 -0.241545
v -0.230876 0.247685 -0.270399
v -0.255347 0.218701 -0.291586
v -0.266506 0.177449 -0.299429
v -0.221448 0.134020 -0.329503
v -0.202449 0.101742 -0.307481
v -0.175755 0.088328 -0.275933
v -0.148520 0.097372 -0.243310
v -0.128039 0.126452 -0.218356
v -0.119802 0.167774 -0.207755
v -0.126015 0.210268 -0.214349
v -0.145014 0.242547 -0.236371
v -0.171708 0.255961 -0.267919
v -0.198944 0.246916 -0.300541
v -0.219424 0.217837 -0.325496
v -0.227661 0.176514 -0.336096
v -0.177451 0.136321 -0.362254
v -0.159631 0.103981 -0.339355
v -0.136158 0.090399 -0.305409
v -0.113322 0.099213 -0.269512
v -0.097241 0.128062 -0.241282
v -0.092225 0.169217 -0.228284
v -0.099617 0.211649 -0.234000
v -0.117437 0.243989 -0.256899
v -0.140910 0.257571 -0.290845
v -0.163746 0.248757 -0.326743
v -0.179827 0.219908 -0.354972
v -0.184843 0.178753 -0.367970
v -0.130125 0.141845 -0.389520
v -0.113573 0.109357 -0.365890
v -0.093564 0.095370 -0.329948
v -0.075461 0.103632 -0.291324
v -0.064113 0.131929 -0.260368
v -0.062561 0.172679 -0.245374
v -0.071221 0.214963 -0.250359
v -0.087773 0.247451 -0.273989
v -0.107781 0.261438 -0.309931
v -0.125885 0.253176 -0.348555
v -0.137233 0.224879 -0.379511
v -0.138785 0.184129 -0.394505
v -0.080278 0.150496 -0.410832
v -0.065062 0.117776 -0.386632
v -0.048703 0.103156 -0.349129
v -0.035584 0.110552 -0.308374
v -0.029221 0.137984 -0.275287
v -0.031318 0.178101 -0.258732
v -0.041314 0.220153 -0.263147
v -0.056530 0.252873 -0.287348
v -0.072889 0.267493 -0.324850
v -0.086008 0.260097 -0.365605
v -0.092372 0.232665 -0.398693
v -0.090274 0.192548 -0.415247
v -0.028766 0.162126 -0.425828
v -0.014930 0.129095 -0.401225
v -0.002342 0.113623 -0.362625
v 0.005626 0.119857 -0.320371
v 0.006838 0.146126 -0.285783
v 0.000970 0.185391 -0.268131
v -0.010406 0.227132 -0.272144
v -0.024242 0.260163 -0.296747
v -0.036830 0.275635 -0.335347
v -0.044798 0.269401 -0.377601
v -0.046010 0.243132 -0.412189
v -0.040142 0.203867 -0.429841
v 0.023532 0.176538 -0.434249
v 0.035967 0.143120 -0.409421
v 0.044727 0.126593 -0.370205
v 0.047465 0.131386 -0.327108
v 0.043447 0.156214 -0.291679
v 0.033750 0.194424 -0.273410
v 0.020973 0.235779 -0.277197
v 0.008538 0.269196 -0.302025
v -0.000222 0.285723 -0.341242
v -0.002959 0.280930 -0.384339
v 0.001058 0.256102 -0.419768
v 0.010755 0.217892 -0.438036
v 0.075721 0.193483 -0.435953
v 0.086757 0.159611 -0.411079
v 0.091697 0.141844 -0.371738
v 0.089216 0.144942 -0.328471
v 0.079979 0.168076 -0.292871
v 0.066462 0.205045 -0.274478
v 0.052286 0.245946 -0.278219
v 0.041250 0.279817 -0.303093
v 0.036310 0.297585 -0.342434
v 0.038791 0.294486 -0.385701
v 0.048028 0.271353 -0.421301
v 0.061545 0.234383 -0.439694
v 0.126907 0.212672 -0.430909
v 0.136572 0.178287 -0.406170
v 0.137764 0.159115 -0.367198
v 0.130165 0.160294 -0.324436
v 0.115809 0.181508 -0.289340
v 0.098545 0.217073 -0.271316
v 0.082998 0.257459 -0.275193
v 0.073333 0.291845 -0.299932
v 0.072141 0.311017 -0.338904
v 0.079740 0.309838 -0.381666
v 0.094095 0.288624 -0.416762
v 0.111360 0.253059 -0.434786
v 0.176215 0.233778 -0.419205
v 0.184559 0.198826 -0.394779
v 0.182141 0.178110 -0.356664
v 0.169611 0.177178 -0.315072
v 0.150325 0.196282 -0.281147
v 0.129451 0.230302 -0.263980
v 0.112582 0.270123 -0.268170
v 0.104239 0.305074 -0.292595
v 0.106656 0.325791 -0.330711
v 0.119187 0.326722 -0.372303
v 0.138473 0.307619 -0.406228
v 0.159347 0.273598 -0.423395
v 0.222801 0.256438 -0.401039
v 0.229896 0.220879 -0.377101
v 0.224069 0.198503 -0.340316
v 0.206880 0.195306 -0.300540
v 0.182935 0.212144 -0.268432
v 0.158651 0.244505 -0.252594
v 0.140534 0.283719 -0.257271
v 0.133439 0.319277 -0.281210
v 0.139266 0.341653 -0.317995
v 0.156455 0.344850 -0.357771
v 0.180400 0.328012 -0.389879
v 0.204684 0.295651 -0.405716
v 0.265868 0.280265 -0.376724
v 0.271809 0.244068 -0.353438
v 0.262829 0.219948 -0.318432
v 0.241333 0.214368 -0.281088
v 0.213082 0.228823 -0.251411
v 0.185645 0.259440 -0.237354
v 0.166374 0.298015 -0.242682
v 0.160433 0.334212 -0.265969
v 0.169413 0.358332 -0.300974
v 0.190909 0.363912 -0.338319
v 0.219160 0.349457 -0.367996
v 0.246597 0.318840 -0.382053
v 0.304679 0.304851 -0.346676
v 0.309580 0.267995 -0.324194
v 0.297759 0.242075 -0.291389
v 0.272382 0.234037 -0.257049
v 0.240250 0.246033 -0.230377
v 0.209972 0.274850 -0.218519
v 0.189661 0.312767 -0.224653
v 0.184759 0.349622 -0.247135
v 0.196581 0.375542 -0.279940
v 0.221958 0.383581 -0.314280
v 0.254090 0.371584 -0.340952
v 0.284368 0.342767 -0.352810
v 0.338570 0.329776 -0.311408
v 0.342563 0.292252 -0.289871
v 0.328261 0.264508 -0.259647
v 0.299495 0.253977 -0.228834
v 0.263973 0.263481 -0.205689
v 0.231214 0.290473 -0.196413
v 0.209995 0.327721 -0.203492
v 0.206002 0.365245 -0.225029
v 0.220305 0.392990 -0.255253
v 0.249071 0.403521 -0.286065
v 0.284592 0.394017 -0.309210
v 0.317351 0.367024 -0.318486
v 0.366961 0.354613 -0.271523
v 0.370194 0.316423 -0.251055
v 0.353813 0.286861 -0.223751
v 0.322208 0.273846 -0.196927
v 0.283847 0.280866 -0.177770
v 0.249010 0.306041 -0.171414
v 0.227030 0.342624 -0.179561
v 0.223798 0.380813 -0.200029
v 0.240178 0.410375 -0.227334
v 0.271783 0.423390 -0.254158
v 0.310144 0.416370 -0.273314
v 0.344982 0.391196 -0.279671
v 0.389367 0.378937 -0.227705
v 0.391999 0.340096 -0.208411
v 0.373978 0.308753 -0.184315
v 0.340132 0.293305 -0.161872
v 0.299531 0.297893 -0.147098
v 0.263053 0.321287 -0.143949
v 0.240473 0.357218 -0.153271
v 0.237841 0.396059 -0.172564
v 0.255862 0.427402 -0.196661
v 0.289708 0.442849 -0.219103
v 0.330309 0.438262 -0.233878
v 0.366787 0.414868 -0.237026
v 0.405403 0.402332 -0.180703
v 0.407606 0.362864 -0.162668
v 0.388411 0.329808 -0.142013
v 0.352961 0.312021 -0.124271
v 0.310757 0.314270 -0.114196
v 0.273105 0.335951 -0.114488
v 0.250095 0.371255 -0.125069
v 0.247893 0.410723 -0.143104
v 0.267088 0.443779 -0.163759
v 0.302537 0.461566 -0.181501
v 0.344742 0.459317 -0.191576
v 0.382394 0.437636 -0.191284
v 0.414796 0.424398 -0.131321
v 0.416747 0.384339 -0.114610
v 0.396864 0.349667 -0.097569
v 0.360476 0.329674 -0.084765
v 0.317332 0.329716 -0.079629
v 0.278992 0.349781 -0.083536
v 0.255731 0.384495 -0.095440
v 0.253780 0.424554 -0.112151
v 0.273663 0.459225 -0.129192
v 0.310052 0.479218 -0.141996
v 0.353196 0.479176 -0.147132
v 0.391535 0.459111 -0.143225
v 0.417385 0.444756 -0.080404
v 0.419267 0.404152 -0.065057
v 0.399194 0.367990 -0.051744
v 0.362547 0.345961 -0.044032
v 0.319144 0.343967 -0.043987
v 0.280615 0.362542 -0.051622
v 0.257284 0.396710 -0.064890
v 0.255403 0.437314 -0.080237
v 0.275475 0.473476 -0.093550
v 0.312123 0.495505 -0.101263
v 0.355526 0.497499 -0.101307
v 0.394054 0.478924 -0.093673
v 0.413126 0.463060 -0.028824
v 0.415121 0.421965 -0.014859
v 0.395361 0.384464 -0.005322
v 0.359139 0.360604 -0.002768
v 0.316162 0.356780 -0.007881
v 0.277945 0.374015 -0.019291
v 0.254729 0.407692 -0.033942
v 0.252733 0.448787 -0.047907
v 0.272494 0.486289 -0.057444
v 0.308715 0.510148 -0.059998
v 0.351692 0.513973 -0.054885
v 0.389909 0.496737 -0.043474
v 0.402091 0.478995 0.022538
v 0.404382 0.437473 0.035126
v 0.385429 0.398805 0.040904
v 0.350311 0.373352 0.038322
v 0.308438 0.367934 0.028072
v 0.271029 0.384003 0.012902
v 0.248108 0.417253 -0.003125
v 0.245817 0.458775 -0.015714
v 0.264769 0.497443 -0.021491
v 0.299887 0.522896 -0.018909
v 0.341761 0.528314 -0.008660
v 0.379170 0.512245 0.006511
v 0.384469 0.492289 0.072801
v 0.387232 0.450411 0.084043
v 0.369570 0.410770 0.086141
v 0.336214 0.383987 0.078533
v 0.296103 0.377240 0.063257
v 0.259984 0.392336 0.044407
v 0.237535 0.425230 0.027033
v 0.234771 0.467108 0.015791
v 0.252434 0.506749 0.013694
v 0.285790 0.533532 0.021302
v 0.325901 0.540279 0.036578
v 0.362020 0.525183 0.055428
v 0.360562 0.502715 0.121107
v 0.363966 0.460558 0.131055
v 0.348054 0.420153 0.129616
v 0.317088 0.392328 0.117177
v 0.279368 0.384538 0.097071
v 0.244999 0.398871 0.074685
v 0.223191 0.431485 0.056017
v 0.219787 0.473643 0.046069
v 0.235699 0.514047 0.047508
v 0.266664 0.541872 0.059947
v 0.304385 0.549662 0.080053
v 0.338754 0.535330 0.102439
v 0.330779 0.510094 0.166629
v 0.334981 0.467739 0.175357
v 0.321249 0.426794 0.170586
v 0.293262 0.398231 0.153595
v 0.258520 0.389703 0.128936
v 0.226331 0.403495 0.103217
v 0.205321 0.435912 0.083330
v 0.201119 0.478268 0.074602
v 0.214851 0.519212 0.079373
v 0.242838 0.547775 0.096364
v 0.277580 0.556303 0.121022
v 0.309769 0.542511 0.146741
v 0.295629 0.514299 0.208587
v 0.300773 0.471831 0.216191
v 0.289614 0.430579 0.208348
v 0.265142 0.401595 0.187161
v 0.233915 0.392647 0.158307
v 0.204299 0.406132 0.129517
v 0.184231 0.438436 0.108505
v 0.179087 0.480904 0.100901
v 0.190246 0.522156 0.108744
v 0.214718 0.551140 0.129931
v 0.245945 0.560088 0.158785
v 0.275561 0.546604 0.187575
v 0.255715 0.515260 0.246265
v 0.261928 0.472766 0.252858
v 0.253691 0.431443 0.242258
v 0.233210 0.402364 0.217303
v 0.205975 0.393319 0.184681
v 0.179281 0.406734 0.153133
v 0.160282 0.439012 0.131111
v 0.154069 0.481506 0.124517
v 0.162306 0.522828 0.135118
v 0.182786 0.551908 0.160072
v 0.210022 0.560952 0.192695
v 0.236716 0.547538 0.224243
v 0.211718 0.512959 0.279016
v 0.219110 0.470527 0.284732
v 0.214093 0.429372 0.271734
v 0.198013 0.400523 0.243505
v 0.175177 0.391709 0.207607
v 0.151704 0.405291 0.173661
v 0.133884 0.437631 0.150762
v 0.126492 0.480063 0.145046
v 0.131508 0.521218 0.158044
v 0.147589 0.550067 0.186274
v 0.170425 0.558881 0.222171
v 0.193898 0.545299 0.256117
v 0.164391 0.507435 0.306282
v 0.173051 0.465151 0.311267
v 0.171500 0.424401 0.296273
v 0.160152 0.396104 0.265317
v 0.142048 0.387842 0.226693
v 0.122040 0.401829 0.190751
v 0.105488 0.434317 0.167121
v 0.096828 0.476601 0.162136
v 0.098379 0.517351 0.177130
v 0.109727 0.545648 0.208086
v 0.127831 0.553910 0.246710
v 0.147839 0.539923 0.282652
v 0.114545 0.498784 0.327594
v 0.124541 0.456732 0.332009
v 0.126638 0.416615 0.315455
v 0.120275 0.389183 0.282367
v 0.107156 0.381787 0.241612
v 0.090797 0.396407 0.204110
v 0.075580 0.429127 0.179909
v 0.065584 0.471179 0.175494
v 0.063487 0.511296 0.192049
v 0.069851 0.538728 0.225136
v 0.082970 0.546124 0.265891
v 0.099329 0.531504 0.303394
v 0.063032 0.487154 0.342590
v 0.074409 0.445413 0.346603
v 0.080277 0.406148 0.328951
v 0.079065 0.379879 0.294363
v 0.071097 0.373645 0.252109
v 0.058509 0.389117 0.213509
v 0.044673 0.422148 0.188906
v 0.033297 0.463889 0.184893
v 0.027428 0.503154 0.202546
v 0.028641 0.529423 0.237133
v 0.036608 0.535657 0.279387
v 0.049197 0.520185 0.317987
v 0.010734 0.472742 0.351011
v 0.023512 0.431388 0.354799
v 0.033208 0.393178 0.336530
v 0.037226 0.368350 0.301101
v 0.034488 0.363557 0.258004
v 0.025728 0.380084 0.218787
v 0.013294 0.413502 0.193959
v 0.000516 0.454856 0.190172
v -0.009180 0.493066 0.208441
v -0.013198 0.517894 0.243870
v -0.010460 0.522687 0.286967
v -0.001700 0.506160 0.326183
v -0.041454 0.455797 0.352715
v -0.027278 0.414897 0.356456
v -0.013761 0.377927 0.338063
v -0.004525 0.354794 0.302463
v -0.002044 0.351695 0.259196
v -0.006983 0.369463 0.219855
v -0.018019 0.403334 0.194981
v -0.032195 0.444235 0.191240
v -0.045712 0.481205 0.209633
v -0.054949 0.504338 0.245233
v -0.057430 0.507436 0.288500
v -0.052491 0.489669 0.327841
v -0.092640 0.436608 0.347671
v -0.077093 0.396221 0.351548
v -0.059829 0.360656 0.333524
v -0.045474 0.339442 0.298429
v -0.037874 0.338263 0.255666
v -0.039066 0.357435 0.216694
v -0.048731 0.391821 0.191955
v -0.064278 0.432207 0.188078
v -0.081543 0.467772 0.206103
v -0.095898 0.488986 0.241198
v -0.103497 0.490165 0.283960
v -0.102305 0.470994 0.322932
v -0.141948 0.415502 0.335967
v -0.125080 0.375682 0.340157
v -0.104206 0.341662 0.322990
v -0.084920 0.322558 0.289065
v -0.072389 0.323489 0.247473
v -0.069972 0.344206 0.209357
v -0.078316 0.379157 0.184932
v -0.095184 0.418978 0.180742
v -0.116058 0.452998 0.197909
v -0.135344 0.472102 0.231834
v -0.147874 0.471171 0.273426
v -0.150292 0.450454 0.311542
v -0.188534 0.392842 0.317801
v -0.170418 0.353629 0.322479
v -0.146133 0.321268 0.306641
v -0.122189 0.304430 0.274533
v -0.105000 0.307627 0.234757
v -0.099172 0.330003 0.197972
v -0.106267 0.365561 0.174033
v -0.124384 0.404775 0.169356
v -0.148668 0.437136 0.185194
v -0.172613 0.453974 0.217302
v -0.189802 0.450777 0.257078
v -0.195630 0.428401 0.293863
v -0.231601 0.369015 0.293487
v -0.212330 0.330440 0.298815
v -0.184894 0.299823 0.284758
v -0.156642 0.285368 0.255081
v -0.135147 0.290948 0.217737
v -0.126166 0.315068 0.182731
v -0.132107 0.351265 0.159444
v -0.151378 0.389840 0.154116
v -0.178815 0.420457 0.168173
v -0.207067 0.434912 0.197850
v -0.228562 0.429332 0.235194
v -0.237543 0.405212 0.270200
v -0.270412 0.344429 0.263438
v -0.250101 0.306513 0.269572
v -0.219823 0.277696 0.257714
v -0.187691 0.265699 0.231042
v -0.162314 0.273738 0.196703
v -0.150493 0.299658 0.163897
v -0.155394 0.336514 0.141415
v -0.175705 0.374430 0.135282
v -0.205983 0.403247 0.147139
v -0.238115 0.415243 0.173811
v -0.263492 0.407205 0.208151
v -0.275314 0.381285 0.240956
v -0.304303 0.319504 0.228170
v -0.283085 0.282256 0.235248
v -0.250325 0.255263 0.225972
v -0.214804 0.245759 0.202827
v -0.186038 0.256291 0.172015
v -0.171736 0.284035 0.141791
v -0.175729 0.321559 0.120254
v -0.196948 0.358807 0.113175
v -0.229707 0.385800 0.122451
v -0.265228 0.395304 0.145597
v -0.293994 0.384772 0.176409
v -0.308297 0.357028 0.206633
v -0.332695 0.294667 0.188285
v -0.310715 0.258085 0.196433
v -0.275877 0.232910 0.190076
v -0.237517 0.225890 0.170920
v -0.205912 0.238905 0.144096
v -0.189531 0.268467 0.116792
v -0.192763 0.306656 0.096324
v -0.214743 0.343239 0.088176
v -0.249581 0.368414 0.094532
v -0.287941 0.375434 0.113689
v -0.319546 0.362419 0.140513
v -0.335927 0.332857 0.167817
v -0.355100 0.270343 0.144467
v -0.332520 0.234412 0.153789
v -0.296042 0.211019 0.150640
v -0.255441 0.206431 0.135865
v -0.221596 0.221878 0.113423
v -0.203575 0.253221 0.089327
v -0.206207 0.292062 0.070033
v -0.228787 0.327993 0.060711
v -0.265264 0.351387 0.063860
v -0.305865 0.355975 0.078635
v -0.339711 0.340528 0.101077
v -0.357732 0.309184 0.125173
v -0.371137 0.246948 0.097465
v -0.348127 0.211644 0.108046
v -0.310475 0.189963 0.108338
v -0.268270 0.187715 0.098264
v -0.232821 0.205501 0.080522
v -0.213626 0.238557 0.059866
v -0.215829 0.278025 0.041831
v -0.238838 0.313329 0.031251
v -0.276490 0.335010 0.030958
v -0.318695 0.337259 0.041033
v -0.354144 0.319472 0.058775
v -0.373339 0.286416 0.079431
v -0.380530 0.224882 0.048083
v -0.357268 0.190169 0.059987
v -0.318929 0.170104 0.063894
v -0.275785 0.170062 0.058758
v -0.239396 0.190055 0.045954
v -0.219514 0.224726 0.028913
v -0.221464 0.264786 0.012202
v -0.244726 0.299499 0.000298
v -0.283065 0.319564 -0.003609
v -0.326209 0.319606 0.001527
v -0.362598 0.299613 0.014331
v -0.382480 0.264942 0.031372
v -0.383119 0.204524 -0.002834
v -0.359788 0.170356 0.010435
v -0.321259 0.151781 0.018069
v -0.277856 0.153775 0.018025
v -0.241209 0.175804 0.010312
v -0.221136 0.211966 -0.003001
v -0.223018 0.252570 -0.018348
v -0.246349 0.286738 -0.031616
v -0.284877 0.305313 -0.039251
v -0.328280 0.303319 -0.039206
v -0.364928 0.281290 -0.031494
v -0.385000 0.245128 -0.018181
v -0.378859 0.186220 -0.054414
v -0.355643 0.152543 -0.039763
v -0.317426 0.135308 -0.028353
v -0.274449 0.139132 -0.023240
v -0.238227 0.162992 -0.025794
v -0.218467 0.200493 -0.035331
v -0.220462 0.241588 -0.049296
v -0.243679 0.275265 -0.063946
v -0.281896 0.292501 -0.075357
v -0.324873 0.288676 -0.080470
v -0.361094 0.264817 -0.077916
v -0.380855 0.227315 -0.068379
v -0.367824 0.170285 -0.105776
v -0.344903 0.137035 -0.089749
v -0.307494 0.120966 -0.074578
v -0.265620 0.126384 -0.064329
v -0.230503 0.151837 -0.061747
v -0.211550 0.190505 -0.067524
v -0.213841 0.232027 -0.080113
v -0.236762 0.265277 -0.096140
v -0.274171 0.281346 -0.111310
v -0.316045 0.275928 -0.121560
v -0.351163 0.250475 -0.124142
v -0.370115 0.211807 -0.118364
v -0.350202 0.156991 -0.156039
v -0.327754 0.124097 -0.138666
v -0.291635 0.109001 -0.119816
v -0.251523 0.115748 -0.104540
v -0.218167 0.142531 -0.096931
v -0.200505 0.182172 -0.099029
v -0.203268 0.224050 -0.110271
v -0.225717 0.256944 -0.127645
v -0.261836 0.272040 -0.146495
v -0.301947 0.265293 -0.161771
v -0.335303 0.238510 -0.169379
v -0.352966 0.198869 -0.167281
vn -0.6803 -0.6494 -0.3398
vn -0.3432 -0.9365 -0.0727
vn 0.0866 -0.9729 0.2144
vn 0.4935 -0.7478 0.4441
vn 0.7675 -0.3220 0.5543
vn 0.8355 0.1892 0.5159
vn 0.6803 0.6494 0.3398
vn 0.3432 0.9365 0.0727
vn -0.0866 0.9729 -0.2144
vn -0.4935 0.7478 -0.4441
vn -0.7675 0.3220 -0.5543
vn -0.8355 -0.1892 -0.5159
vn -0.6054 -0.6628 -0.4407
vn -0.2883 -0.9463 -0.1467
vn 0.1067 -0.9765 0.1873
vn 0.4734 -0.7442 0.4712
vn 0.7126 -0.3122 0.6283
vn 0.7606 0.2026 0.6168
vn 0.6054 0.6628 0.4407
vn 0.2883 0.9463 0.1467
vn -0.1067 0.9765 -0.1873
vn -0.4734 0.7442 -0.4712
vn -0.7126 0.3122 -0.6283
vn -0.7606 -0.2026 -0.6168
vn -0.5188 -0.6687 -0.5326
vn -0.2248 -0.9506 -0.2140
vn 0.1300 -0.9781 0.1626
vn 0.4502 -0.7426 0.4959
vn 0.6492 -0.3078 0.6956
vn 0.6740 0.2085 0.7087
vn 0.5188 0.6687 0.5326
vn 0.2248 0.9506 0.2140
vn -0.1300 0.9781 -0.1626
vn -0.4502 0.7426 -0.4959
vn -0.6492 0.3078 -0.6956
vn -0.6740 -0.2085 -0.7087
vn -0.4220 -0.6672 -0.6138
vn -0.1539 -0.9495 -0.2735
vn 0.1560 -0.9777 0.1408
vn 0.4242 -0.7430 0.5177
vn 0.5783 -0.3090 0.7551
vn 0.5772 0.2070 0.7899
vn 0.4220 0.6672 0.6138
vn 0.1539 0.9495 0.2735
vn -0.1560 0.9777 -0.1408
vn -0.4242 0.7430 -0.5177
vn -0.5783 0.3090 -0.7551
vn -0.5772 -0.2070 -0.7899
vn -0.3167 -0.6581 -0.6830
vn -0.0767 -0.9429 -0.3242
vn 0.1842 -0.9752 0.1223
vn 0.3959 -0.7454 0.5363
vn 0.5011 -0.3156 0.8058
vn 0.4719 0.1979 0.8592
vn 0.3167 0.6581 0.6830
vn 0.0767 0.9429 0.3242
vn -0.1842 0.9752 -0.1223
vn -0.3959 0.7454 -0.5363
vn -0.5011 0.3156 -0.8058
vn -0.4719 -0.1979 -0.8592
vn -0.2046 -0.6418 -0.7391
vn 0.0054 -0.9309 -0.3653
vn 0.2143 -0.9709 0.1072
vn 0.3659 -0.7498 0.5513
vn 0.4189 -0.3276 0.8469
vn 0.3598 0.1816 0.9152
vn 0.2046 0.6418 0.7391
vn -0.0054 0.9309 0.3653
vn -0.2143 0.9709 -0.1072
vn -0.3659 0.7498 -0.5513
vn -0.4189 0.3276 -0.8469
vn -0.3598 -0.1816 -0.9152
vn -0.0877 -0.6184 -0.7809
vn 0.0910 -0.9138 -0.3959
vn 0.2457 -0.9646 0.0960
vn 0.3345 -0.7561 0.5625
vn 0.3333 -0.3447 0.8776
vn 0.2429 0.1582 0.9571
vn 0.0877 0.6184 0.7809
vn -0.0910 0.9138 0.3959
vn -0.2457 0.9646 -0.0960
vn -0.3345 0.7561 -0.5625
vn -0.3333 0.3447 -0.8776
vn -0.2429 -0.1582 -0.9571
vn 0.0320 -0.5884 -0.8080
vn 0.1788 -0.8917 -0.4157
vn 0.2779 -0.9565 0.0887
vn 0.3023 -0.7642 0.5698
vn 0.2456 -0.3667 0.8973
vn 0.1231 0.1282 0.9841
vn -0.0320 0.5884 0.8080
vn -0.1788 0.8917 0.4157
vn -0.2779 0.9565 -0.0887
vn -0.3023 0.7642 -0.5698
vn -0.2455 0.3667 -0.8973
vn -0.1231 -0.1282 -0.9841
vn 0.1525 -0.5522 -0.8196
vn 0.2671 -0.8652 -0.4243
vn 0.3102 -0.9468 0.0856
vn 0.2700 -0.7739 0.5729
vn 0.1572 -0.3932 0.9059
vn 0.0026 0.0920 0.9958
vn -0.1525 0.5522 0.8196
vn -0.2671 0.8652 0.4243
vn -0.3102 0.9468 -0.0856
vn -0.2700 0.7739 -0.5729
vn -0.1572 0.3932 -0.9059
vn -0.0026 -0.0920 -0.9958
vn 0.2718 -0.5105 -0.8158
vn 0.3545 -0.8347 -0.4215
vn 0.3422 -0.9356 0.0866
vn 0.2380 -0.7851 0.5719
vn 0.0699 -0.4238 0.9031
vn -0.1166 0.0503 0.9919
vn -0.2718 0.5105 0.8158
vn -0.3545 0.8347 0.4215
vn -0.3422 0.9356 -0.0866
vn -0.2380 0.7851 -0.5719
vn -0.0699 0.4238 -0.9031
vn 0.1166 -0.0503 -0.9919
vn 0.3877 -0.4640 -0.7965
vn 0.4394 -0.8006 -0.4073
vn 0.3733 -0.9231 0.0918
vn 0.2068 -0.7975 0.5667
vn -0.0151 -0.4578 0.8889
vn -0.2325 0.0038 0.9726
vn -0.3877 0.4640 0.7965
vn -0.4394 0.8006 0.4073
vn -0.3733 0.9231 -0.0918
vn -0.2068 0.7975 -0.5667
vn 0.0151 0.4578 -0.8889
vn 0.2325 -0.0038 -0.9726
vn 0.4983 -0.4136 -0.7620
vn 0.5204 -0.7637 -0.3821
vn 0.4030 -0.9096 0.1011
vn 0.1772 -0.8111 0.5575
vn -0.0961 -0.4948 0.8637
vn -0.3431 -0.0466 0.9381
vn -0.4983 0.4136 0.7620
vn -0.5204 0.7637 0.3821
vn -0.4030 0.9096 -0.1011
vn -0.1772 0.8111 -0.5575
vn 0.0961 0.4948 -0.8637
vn 0.3431 0.0466 -0.9381
vn 0.6017 -0.3599 -0.7130
vn 0.5962 -0.7244 -0.3462
vn 0.4308 -0.8952 0.1142
vn 0.1494 -0.8255 0.5443
vn -0.1719 -0.5341 0.8278
vn -0.4465 -0.1003 0.8891
vn -0.6017 0.3599 0.7130
vn -0.5962 0.7244 0.3462
vn -0.4308 0.8952 -0.1142
vn -0.1494 0.8255 -0.5443
vn 0.1719 0.5341 -0.8278
vn 0.4465 0.1003 -0.8891
vn 0.6961 -0.3041 -0.6503
vn 0.6654 -0.6835 -0.3002
vn 0.4561 -0.8802 0.1310
vn 0.1240 -0.8405 0.5275
vn -0.2411 -0.5750 0.7818
vn -0.5410 -0.1561 0.8264
vn -0.6961 0.3041 0.6503
vn -0.6654 0.6835 0.3002
vn -0.4561 0.8802 -0.1310
vn -0.1240 0.8405 -0.5275
vn 0.2411 0.5750 -0.7818
vn 0.5410 0.1561 -0.8264
vn 0.7800 -0.2470 -0.5750
vn 0.7268 -0.6416 -0.2450
vn 0.4787 -0.8649 0.1513
vn 0.1015 -0.8558 0.5072
vn -0.3025 -0.6168 0.7266
vn -0.6248 -0.2132 0.7511
vn -0.7800 0.2470 0.5750
vn -0.7268 0.6416 0.2450
vn -0.4787 0.8649 -0.1513
vn -0.1015 0.8558 -0.5072
vn 0.3025 0.6168 -0.7266
vn 0.6248 0.2132 -0.7511
vn 0.8518 -0.1896 -0.4883
vn 0.7795 -0.5996 -0.1815
vn 0.4979 -0.8495 0.1745
vn 0.0823 -0.8712 0.4840
vn -0.3551 -0.6589 0.6631
vn -0.6967 -0.2706 0.6644
vn -0.8518 0.1896 0.4883
vn -0.7795 0.5996 0.1815
vn -0.4979 0.8495 -0.1745
vn -0.0823 0.8712 -0.4840
vn 0.3551 0.6589 -0.6631
vn 0.6967 0.2706 -0.6644
vn 0.9104 -0.1329 -0.3917
vn 0.8224 -0.5580 -0.1108
vn 0.5137 -0.8342 0.2004
vn 0.0665 -0.8864 0.4581
vn -0.3981 -0.7004 0.5924
vn -0.7552 -0.3273 0.5679
vn -0.9104 0.1329 0.3917
vn -0.8224 0.5580 0.1108
vn -0.5137 0.8342 -0.2004
vn -0.0665 0.8864 -0.4581
vn 0.3981 0.7004 -0.5924
vn 0.7552 0.3273 -0.5679
vn 0.9548 -0.0779 -0.2870
vn 0.8549 -0.5177 -0.0340
vn 0.5256 -0.8195 0.2286
vn 0.0546 -0.9012 0.4299
vn -0.4306 -0.7408 0.5156
vn -0.7996 -0.3823 0.4631
vn -0.9548 0.0779 0.2870
vn -0.8549 0.5177 0.0340
vn -0.5256 0.8195 -0.2286
vn -0.0546 0.9012 -0.4299
vn 0.4306 0.7408 -0.5156
vn 0.7996 0.3823 -0.4631
vn 0.9841 -0.0254 -0.1758
vn 0.8764 -0.4793 0.0475
vn 0.5334 -0.8054 0.2584
vn 0.0467 -0.9153 0.4001
vn -0.4521 -0.7792 0.4342
vn -0.8289 -0.4348 0.3519
vn -0.9841 0.0254 0.1758
vn -0.8764 0.4793 -0.0474
vn -0.5334 0.8054 -0.2584
vn -0.0467 0.9153 -0.4001
vn 0.4521 0.7792 -0.4342
vn 0.8289 0.4348 -0.3519
vn 0.9979 0.0235 -0.0601
vn 0.8865 -0.4434 0.1322
vn 0.5372 -0.7923 0.2895
vn 0.0430 -0.9284 0.3690
vn -0.4622 -0.8151 0.3494
vn -0.8427 -0.4837 0.2363
vn -0.9979 -0.0235 0.0601
vn -0.8865 0.4434 -0.1322
vn -0.5372 0.7923 -0.2895
vn -0.0430 0.9284 -0.3690
vn 0.4622 0.8151 -0.3494
vn 0.8427 0.4837 -0.2363
vn 0.9960 0.0681 0.0581
vn 0.8851 -0.4107 0.2188
vn 0.5366 -0.7803 0.3212
vn 0.0436 -0.9404 0.3373
vn -0.4608 -0.8477 0.2628
vn -0.8408 -0.5283 0.1180
vn -0.9960 -0.0681 -0.0581
vn -0.8851 0.4107 -0.2188
vn -0.5366 0.7803 -0.3212
vn -0.0436 0.9404 -0.3373
vn 0.4608 0.8477 -0.2628
vn 0.8408 0.5283 -0.1180
vn 0.9783 0.1076 0.1768
vn 0.8722 -0.3818 0.3058
vn 0.5319 -0.7697 0.3531
vn 0.0483 -0.9510 0.3054
vn -0.4478 -0.8767 0.1758
vn -0.8232 -0.5678 -0.0007
vn -0.9783 -0.1076 -0.1768
vn -0.8722 0.3818 -0.3058
vn -0.5319 0.7697 -0.3531
vn -0.0483 0.9510 -0.3054
vn 0.4478 0.8767 -0.1758
vn 0.8232 0.5678 0.0007
vn 0.9453 0.1413 0.2940
vn 0.8480 -0.3571 0.3917
vn 0.5230 -0.7606 0.3845
vn 0.0572 -0.9600 0.2740
vn -0.4236 -0.9014 0.0899
vn -0.7901 -0.6015 -0.1179
vn -0.9453 -0.1413 -0.2940
vn -0.8480 0.3571 -0.3917
vn -0.5230 0.7606 -0.3845
vn -0.0572 0.9600 -0.2740
vn 0.4236 0.9014 -0.0899
vn 0.7901 0.6015 0.1179
vn 0.8974 0.1687 0.4077
vn 0.8129 -0.3370 0.4750
vn 0.5102 -0.7533 0.4151
vn 0.0700 -0.9674 0.2434
vn -0.3885 -0.9214 0.0066
vn -0.7422 -0.6289 -0.2316
vn -0.8974 -0.1687 -0.4077
vn -0.8129 0.3370 -0.4750
vn -0.5102 0.7533 -0.4151
vn -0.0700 0.9674 -0.2434
vn 0.3885 0.9214 -0.0066
vn 0.7422 0.6289 0.2316
vn 0.2455 -0.3667 0.8973
vn -0.4465 -0.1002 0.8891
vn 0.7553 0.3273 -0.5679
vn 0.8764 -0.4793 0.0474
vt 0.500000 0.500000
vt 0.520833 0.500000
vt 0.520833 0.583333
vt 0.500000 0.583333
vt 0.520833 0.666667
vt 0.500000 0.666667
vt 0.520833 0.750000
vt 0.500000 0.750000
vt 0.520833 0.833333
vt 0.500000 0.833333
vt 0.520833 0.916667
vt 0.500000 0.916667
vt 0.520833 1.000000
vt 0.500000 1.000000
vt 0.500000 0.000000
vt 0.520833 0.000000
vt 0.520833 0.083333
vt 0.500000 0.083333
vt 0.520833 0.166667
vt 0.500000 0.166667
vt 0.520833 0.250000
vt 0.500000 0.250000
vt 0.520833 0.333333
vt 0.500000 0.333333
vt 0.520833 0.416667
vt 0.500000 0.416667
vt 0.541667 0.500000
vt 0.541667 0.583333
vt 0.541667 0.666667
vt 0.541667 0.750000
vt 0.541667 0.833333
vt 0.541667 0.916667
vt 0.541667 1.000000
vt 0.541667 0.000000
vt 0.541667 0.083333
vt 0.541667 0.166667
vt 0.541667 0.250000
vt 0.541667 0.333333
vt 0.541667 0.416667
vt 0.562500 0.500000
vt 0.562500 0.583333
vt 0.562500 0.666667
vt 0.562500 0.750000
vt 0.562500 0.833333
vt 0.562500 0.916667
vt 0.562500 1.000000
vt 0.562500 0.000000
vt 0.562500 0.083333
vt 0.562500 0.166667
vt 0.562500 0.250000
vt 0.562500 0.333333
vt 0.562500 0.416667
vt 0.583333 0.500000
vt 0.583333 0.583333
vt 0.583333 0.666667
vt 0.583333 0.750000
vt 0.583333 0.833333
vt 0.583333 0.916667
vt 0.583333 1.000000
vt 0.583333 0.000000
vt 0.583333 0.083333
vt 0.583333 0.166667
vt 0.583333 0.250000
vt 0.583333 0.333333
vt 0.583333 0.416667
vt 0.604167 0.500000
vt 0.604167 0.583333
vt 0.604167 0.666667
vt 0.604167 0.750000
vt 0.604167 0.833333
vt 0.604167 0.916667
vt 0.604167 1.000000
vt 0.604167 0.000000
vt 0.604167 0.083333
vt 0.604167 0.166667
vt 0.604167 0.250000
vt 0.604167 0.333333
vt 0.604167 0.416667
vt 0.625000 0.500000
vt 0.625000 0.583333
vt 0.625000 0.666667
vt 0.625000 0.750000
vt 0.625000 0.833333
vt 0.625000 0.916667
vt 0.625000 1.000000
vt 0.625000 0.000000
vt 0.625000 0.083333
vt 0.625000 0.166667
vt 0.625000 0.250000
vt 0.625000 0.333333
vt 0.625000 0.416667
vt 0.645833 0.500000
vt 0.645833 0.583333
vt 0.645833 0.666667
vt 0.645833 0.750000
vt 0.645833 0.833333
vt 0.645833 0.916667
vt 0.645833 1.000000
vt 0.645833 0.000000
vt 0.645833 0.083333
vt 0.645833 0.166667
vt 0.645833 0.250000
vt 0.645833 0.333333
vt 0.645833 0.416667
vt 0.666667 0.500000
vt 0.666667 0.583333
vt 0.666667 0.666667
vt 0.666667 0.750000
vt 0.666667 0.833333
vt 0.666667 0.916667
vt 0.666667 1.000000
vt 0.666667 0.000000
vt 0.666667 0.083333
vt 0.666667 0.166667
vt 0.666667 0.250000
vt 0.666667 0.333333
vt 0.666667 0.416667
vt 0.687500 0.500000
vt 0.687500 0.583333
vt 0.687500 0.666667
vt 0.687500 0.750000
vt 0.687500 0.833333
vt 0.687500 0.916667
vt 0.687500 1.000000
vt 0.687500 0.000000
vt 0.687500 0.083333
vt 0.687500 0.166667
vt 0.687500 0.250000
vt 0.687500 0.333333
vt 0.687500 0.416667
vt 0.708333 0.500000
vt 0.708333 0.583333
vt 0.708333 0.666667
vt 0.708333 0.750000
vt 0.708333 0.833333
vt 0.708333 0.916667
vt 0.708333 1.000000
vt 0.708333 0.000000
vt 0.708333 0.083333
vt 0.708333 0.166667
vt 0.708333 0.250000
vt 0.708333 0.333333
vt 0.708333 0.416667
vt 0.729167 0.500000
vt 0.729167 0.583333
vt 0.729167 0.666667
vt 0.729167 0.750000
vt 0.729167 0.833333
vt 0.729167 0.916667
vt 0.729167 1.000000
vt 0.729167 0.000000
vt 0.729167 0.083333
vt 0.729167 0.166667
vt 0.729167 0.250000
vt 0.729167 0.333333
vt 0.729167 0.416667
vt 0.750000 0.500000
vt 0.750000 0.583333
vt 0.750000 0.666667
vt 0.750000 0.750000
vt 0.750000 0.833333
vt 0.750000 0.916667
vt 0.750000 1.000000
vt 0.750000 0.000000
vt 0.750000 0.083333
vt 0.750000 0.166667
vt 0.750000 0.250000
vt 0.750000 0.333333
vt 0.750000 0.416667
vt 0.770833 0.500000
vt 0.770833 0.583333
vt 0.770833 0.666667
vt 0.770833 0.750000
vt 0.770833 0.833333
vt 0.770833 0.916667
vt 0.770833 1.000000
vt 0.770833 0.000000
vt 0.770833 0.083333
vt 0.770833 0.166667
vt 0.770833 0.250000
vt 0.770833 0.333333
vt 0.770833 0.416667
vt 0.791667 0.500000
vt 0.791667 0.583333
vt 0.791667 0.666667
vt 0.791667 0.750000
vt 0.791667 0.833333
vt 0.791667 0.916667
vt 0.791667 1.000000
vt 0.791667 0.000000
vt 0.791667 0.083333
vt 0.791667 0.166667
vt 0.791667 0.250000
vt 0.791667 0.333333
vt 0.791667 0.416667
vt 0.812500 0.500000
vt 0.812500 0.583333
vt 0.812500 0.666667
vt 0.812500 0.750000
vt 0.812500 0.833333
vt 0.812500 0.916667
vt 0.812500 1.000000
vt 0.812500 0.000000
vt 0.812500 0.083333
vt 0.812500 0.166667
vt 0.812500 0.250000
vt 0.812500 0.333333
vt 0.812500 0.416667
vt 0.833333 0.500000
vt 0.833333 0.583333
vt 0.833333 0.666667
vt 0.833333 0.750000
vt 0.833333 0.833333
vt 0.833333 0.916667
vt 0.833333 1.000000
vt 0.833333 0.000000
vt 0.833333 0.083333
vt 0.833333 0.166667
vt 0.833333 0.250000
vt 0.833333 0.333333
vt 0.833333 0.416667
vt 0.854167 0.500000
vt 0.854167 0.583333
vt 0.854167 0.666667
vt 0.854167 0.750000
vt 0.854167 0.833333
vt 0.854167 0.916667
vt 0.854167 1.000000
vt 0.854167 0.000000
vt 0.854167 0.083333
vt 0.854167 0.166667
vt 0.854167 0.250000
vt 0.854167 0.333333
vt 0.854167 0.416667
vt 0.875000 0.500000
vt 0.875000 0.583333
vt 0.875000 0.666667
vt 0.875000 0.750000
vt 0.875000 0.833333
vt 0.875000 0.916667
vt 0.875000 1.000000
vt 0.875000 0.000000
vt 0.875000 0.083333
vt 0.875000 0.166667
vt 0.875000 0.250000
vt 0.875000 0.333333
vt 0.875000 0.416667
vt 0.895833 0.500000
vt 0.895833 0.583333
vt 0.895833 0.666667
vt 0.895833 0.750000
vt 0.895833 0.833333
vt 0.895833 0.916667
vt 0.895833 1.000000
vt 0.895833 0.000000
vt 0.895833 0.083333
vt 0.895833 0.166667
vt 0.895833 0.250000
vt 0.895833 0.333333
vt 0.895833 0.416667
vt 0.916667 0.500000
vt 0.916667 0.583333
vt 0.916667 0.666667
vt 0.916667 0.750000
vt 0.916667 0.833333
vt 0.916667 0.916667
vt 0.916667 1.000000
vt 0.916667 0.000000
vt 0.916667 0.083333
vt 0.916667 0.166667
vt 0.916667 0.250000
vt 0.916667 0.333333
vt 0.916667 0.416667
vt 0.937500 0.500000
vt 0.937500 0.583333
vt 0.937500 0.666667
vt 0.937500 0.750000
vt 0.937500 0.833333
vt 0.937500 0.916667
vt 0.937500 1.000000
vt 0.937500 0.000000
vt 0.937500 0.083333
vt 0.937500 0.166667
vt 0.937500 0.250000
vt 0.937500 0.333333
vt 0.937500 0.416667
vt 0.958333 0.500000
vt 0.958333 0.583333
vt 0.958333 0.666667
vt 0.958333 0.750000
vt 0.958333 0.833333
vt 0.958333 0.916667
vt 0.958333 1.000000
vt 0.958333 0.000000
vt 0.958333 0.083333
vt 0.958333 0.166667
vt 0.958333 0.250000
vt 0.958333 0.333333
vt 0.958333 0.416667
vt 0.979167 0.500000
vt 0.979167 0.583333
vt 0.979167 0.666667
vt 0.979167 0.750000
vt 0.979167 0.833333
vt 0.979167 0.916667
vt 0.979167 1.000000
vt 0.979167 0.000000
vt 0.979167 0.083333
vt 0.979167 0.166667
vt 0.979167 0.250000
vt 0.979167 0.333333
vt 0.979167 0.416667
vt 1.000000 0.500000
vt 1.000000 0.583333
vt 1.000000 0.666667
vt 1.000000 0.750000
vt 1.000000 0.833333
vt 1.000000 0.916667
vt 1.000000 1.000000
vt 1.000000 0.000000
vt 1.000000 0.083333
vt 1.000000 0.166667
vt 1.000000 0.250000
vt 1.000000 0.333333
vt 1.000000 0.416667
vt 0.000000 0.500000
vt 0.020833 0.500000
vt 0.020833 0.583333
vt 0.000000 0.583333
vt 0.020833 0.666667
vt 0.000000 0.666667
vt 0.020833 0.750000
vt 0.000000 0.750000
vt 0.020833 0.833333
vt 0.000000 0.833333
vt 0.020833 0.916667
vt 0.000000 0.916667
vt 0.020833 1.000000
vt 0.000000 1.000000
vt 0.000000 0.000000
vt 0.020833 0.000000
vt 0.020833 0.083333
vt 0.000000 0.083333
vt 0.020833 0.166667
vt 0.000000 0.166667
vt 0.020833 0.250000
vt 0.000000 0.250000
vt 0.020833 0.333333
vt 0.000000 0.333333
vt 0.020833 0.416667
vt 0.000000 0.416667
vt 0.041667 0.500000
vt 0.041667 0.583333
vt 0.041667 0.666667
vt 0.041667 0.750000
vt 0.041667 0.833333
vt 0.041667 0.916667
vt 0.041667 1.000000
vt 0.041667 0.000000
vt 0.041667 0.083333
vt 0.041667 0.166667
vt 0.041667 0.250000
vt 0.041667 0.333333
vt 0.041667 0.416667
vt 0.062500 0.500000
vt 0.062500 0.583333
vt 0.062500 0.666667
vt 0.062500 0.750000
vt 0.062500 0.833333
vt 0.062500 0.916667
vt 0.062500 1.000000
vt 0.062500 0.000000
vt 0.062500 0.083333
vt 0.062500 0.166667
vt 0.062500 0.250000
vt 0.062500 0.333333
vt 0.062500 0.416667
vt 0.083333 0.500000
vt 0.083333 0.583333
vt 0.083333 0.666667
vt 0.083333 0.750000
vt 0.083333 0.833333
vt 0.083333 0.916667
vt 0.083333 1.000000
vt 0.083333 0.000000
vt 0.083333 0.083333
vt 0.083333 0.166667
vt 0.083333 0.250000
vt 0.083333 0.333333
vt 0.083333 0.416667
vt 0.104167 0.500000
vt 0.104167 0.583333
vt 0.104167 0.666667
vt 0.104167 0.750000
vt 0.104167 0.833333
vt 0.104167 0.916667
vt 0.104167 1.000000
vt 0.104167 0.000000
vt 0.104167 0.083333
vt 0.104167 0.166667
vt 0.104167 0.250000
vt 0.104167 0.333333
vt 0.104167 0.416667
vt 0.125000 0.500000
vt 0.125000 0.583333
vt 0.125000 0.666667
vt 0.125000 0.750000
vt 0.125000 0.833333
vt 0.125000 0.916667
vt 0.125000 1.000000
vt 0.125000 0.000000
vt 0.125000 0.083333
vt 0.125000 0.166667
vt 0.125000 0.250000
vt 0.125000 0.333333
vt 0.125000 0.416667
vt 0.145833 0.500000
vt 0.145833 0.583333
vt 0.145833 0.666667
vt 0.145833 0.750000
vt 0.145833 0.833333
vt 0.145833 0.916667
vt 0.145833 1.000000
vt 0.145833 0.000000
vt 0.145833 0.083333
vt 0.145833 0.166667
vt 0.145833 0.250000
vt 0.145833 0.333333
vt 0.145833 0.416667
vt 0.166667 0.500000
vt 0.166667 0.583333
vt 0.166667 0.666667
vt 0.166667 0.750000
vt 0.166667 0.833333
vt 0.166667 0.916667
vt 0.166667 1.000000
vt 0.166667 0.000000
vt 0.166667 0.083333
vt 0.166667 0.166667
vt 0.166667 0.250000
vt 0.166667 0.333333
vt 0.166667 0.416667
vt 0.187500 0.500000
vt 0.187500 0.583333
vt 0.187500 0.666667
vt 0.187500 0.750000
vt 0.187500 0.833333
vt 0.187500 0.916667
vt 0.187500 1.000000
vt 0.187500 0.000000
vt 0.187500 0.083333
vt 0.187500 0.166667
vt 0.187500 0.250000
vt 0.187500 0.333333
vt 0.187500 0.416667
vt 0.208333 0.500000
vt 0.208333 0.583333
vt 0.208333 0.666667
vt 0.208333 0.750000
vt 0.208333 0.833333
vt 0.208333 0.916667
vt 0.208333 1.000000
vt 0.208333 0.000000
vt 0.208333 0.083333
vt 0.208333 0.166667
vt 0.208333 0.250000
vt 0.208333 0.333333
vt 0.208333 0.416667
vt 0.229167 0.500000
vt 0.229167 0.583333
vt 0.229167 0.666667
vt 0.229167 0.750000
vt 0.229167 0.833333
vt 0.229167 0.916667
vt 0.229167 1.000000
vt 0.229167 0.000000
vt 0.229167 0.083333
vt 0.229167 0.166667
vt 0.229167 0.250000
vt 0.229167 0.333333
vt 0.229167 0.416667
vt 0.250000 0.500000
vt 0.250000 0.583333
vt 0.250000 0.666667
vt 0.250000 0.750000
vt 0.250000 0.833333
vt 0.250000 0.916667
vt 0.250000 1.000000
vt 0.250000 0.000000
vt 0.250000 0.083333
vt 0.250000 0.166667
vt 0.250000 0.250000
vt 0.250000 0.333333
vt 0.250000 0.416667
vt 0.270833 0.500000
vt 0.270833 0.583333
vt 0.270833 0.666667
vt 0.270833 0.750000
vt 0.270833 0.833333
vt 0.270833 0.916667
vt 0.270833 1.000000
vt 0.270833 0.000000
vt 0.270833 0.083333
vt 0.270833 0.166667
vt 0.270833 0.250000
vt 0.270833 0.333333
vt 0.270833 0.416667
vt 0.291667 0.500000
vt 0.291667 0.583333
vt 0.291667 0.666667
vt 0.291667 0.750000
vt 0.291667 0.833333
vt 0.291667 0.916667
vt 0.291667 1.000000
vt 0.291667 0.000000
vt 0.291667 0.083333
vt 0.291667 0.166667
vt 0.291667 0.250000
vt 0.291667 0.333333
vt 0.291667 0.416667
vt 0.312500 0.500000
vt 0.312500 0.583333
vt 0.312500 0.666667
vt 0.312500 0.750000
vt 0.312500 0.833333
vt 0.312500 0.916667
vt 0.312500 1.000000
vt 0.312500 0.000000
vt 0.312500 0.083333
vt 0.312500 0.166667
vt 0.312500 0.250000
vt 0.312500 0.333333
vt 0.312500 0.416667
vt 0.333333 0.500000
vt 0.333333 0.583333
vt 0.333333 0.666667
vt 0.333333 0.750000
vt 0.333333 0.833333
vt 0.333333 0.916667
vt 0.333333 1.000000
vt 0.333333 0.000000
vt 0.333333 0.083333
vt 0.333333 0.166667
vt 0.333333 0.250000
vt 0.333333 0.333333
vt 0.333333 0.416667
vt 0.354167 0.500000
vt 0.354167 0.583333
vt 0.354167 0.666667
vt 0.354167 0.750000
vt 0.354167 0.833333
vt 0.354167 0.916667
vt 0.354167 1.000000
vt 0.354167 0.000000
vt 0.354167 0.083333
vt 0.354167 0.166667
vt 0.354167 0.250000
vt 0.354167 0.333333
vt 0.354167 0.416667
vt 0.375000 0.500000
vt 0.375000 0.583333
vt 0.375000 0.666667
vt 0.375000 0.750000
vt 0.375000 0.833333
vt 0.375000 0.916667
vt 0.375000 1.000000
vt 0.375000 0.000000
vt 0.375000 0.083333
vt 0.375000 0.166667
vt 0.375000 0.250000
vt 0.375000 0.333333
vt 0.375000 0.416667
vt 0.395833 0.500000
vt 0.395833 0.583333
vt 0.395833 0.666667
vt 0.395833 0.750000
vt 0.395833 0.833333
vt 0.395833 0.916667
vt 0.395833 1.000000
vt 0.395833 0.000000
vt 0.395833 0.083333
vt 0.395833 0.166667
vt 0.395833 0.250000
vt 0.395833 0.333333
vt 0.395833 0.416667
vt 0.416667 0.500000
vt 0.416667 0.583333
vt 0.416667 0.666667
vt 0.416667 0.750000
vt 0.416667 0.833333
vt 0.416667 0.916667
vt 0.416667 1.000000
vt 0.416667 0.000000
vt 0.416667 0.083333
vt 0.416667 0.166667
vt 0.416667 0.250000
vt 0.416667 0.333333
vt 0.416667 0.416667
vt 0.437500 0.500000
vt 0.437500 0.583333
vt 0.437500 0.666667
vt 0.437500 0.750000
vt 0.437500 0.833333
vt 0.437500 0.916667
vt 0.437500 1.000000
vt 0.437500 0.000000
vt 0.437500 0.083333
vt 0.437500 0.166667
vt 0.437500 0.250000
vt 0.437500 0.333333
vt 0.437500 0.416667
vt 0.458333 0.500000
vt 0.458333 0.583333
vt 0.458333 0.666667
vt 0.458333 0.750000
vt 0.458333 0.833333
vt 0.458333 0.916667
vt 0.458333 1.000000
vt 0.458333 0.000000
vt 0.458333 0.083333
vt 0.458333 0.166667
vt 0.458333 0.250000
vt 0.458333 0.333333
vt 0.458333 0.416667
vt 0.479167 0.500000
vt 0.479167 0.583333
vt 0.479167 0.666667
vt 0.479167 0.750000
vt 0.479167 0.833333
vt 0.479167 0.916667
vt 0.479167 1.000000
vt 0.479167 0.000000
vt 0.479167 0.083333
vt 0.479167 0.166667
vt 0.479167 0.250000
vt 0.479167 0.333333
vt 0.479167 0.416667
s 0
usemtl Material.002
f 5/5/2 17/6/2 18/7/2 6/8/2
f 6/8/3 18/7/3 19/9/3 7/10/3
f 7/10/4 19/9/4 20/11/4 8/12/4
f 8/12/5 20/11/5 21/13/5 9/14/5
f 9/14/6 21/13/6 22/15/6 10/16/6
f 10/16/7 22/15/7 23/17/7 11/18/7
f 11/19/8 23/20/8 24/21/8 12/22/8
f 12/22/9 24/21/9 25/23/9 13/24/9
f 13/24/10 25/23/10 26/25/10 14/26/10
f 14/26/11 26/25/11 27/27/11 15/28/11
f 15/28/12 27/27/12 28/29/12 16/30/12
f 16/30/13 28/29/13 17/6/13 5/5/13
f 17/6/14 29/31/14 30/32/14 18/7/14
f 18/7/15 30/32/15 31/33/15 19/9/15
f 19/9/16 31/33/16 32/34/16 20/11/16
f 20/11/17 32/34/17 33/35/17 21/13/17
f 21/13/18 33/35/18 34/36/18 22/15/18
f 22/15/19 34/36/19 35/37/19 23/17/19
f 23/20/20 35/38/20 36/39/20 24/21/20
f 24/21/21 36/39/21 37/40/21 25/23/21
f 25/23/22 37/40/22 38/41/22 26/25/22
f 26/25/23 38/41/23 39/42/23 27/27/23
f 27/27/24 39/42/24 40/43/24 28/29/24
f 28/29/25 40/43/25 29/31/25 17/6/25
f 29/31/26 41/44/26 42/45/26 30/32/26
f 30/32/27 42/45/27 43/46/27 31/33/27
f 31/33/28 43/46/28 44/47/28 32/34/28
f 32/34/29 44/47/29 45/48/29 33/35/29
f 33/35/30 45/48/30 46/49/30 34/36/30
f 34/36/31 46/49/31 47/50/31 35/37/31
f 35/38/32 47/51/32 48/52/32 36/39/32
f 36/39/33 48/52/33 49/53/33 37/40/33
f 37/40/34 49/53/34 50/54/34 38/41/34
f 38/41/35 50/54/35 51/55/35 39/42/35
f 39/42/36 51/55/36 52/56/36 40/43/36
f 40/43/37 52/56/37 41/44/37 29/31/37
f 41/44/38 53/57/38 54/58/38 42/45/38
f 42/45/39 54/58/39 55/59/39 43/46/39
f 43/46/40 55/59/40 56/60/40 44/47/40
f 44/47/41 56/60/41 57/61/41 45/48/41
f 45/48/42 57/61/42 58/62/42 46/49/42
f 46/49/43 58/62/43 59/63/43 47/50/43
f 47/51/44 59/64/44 60/65/44 48/52/44
f 48/52/45 60/65/45 61/66/45 49/53/45
f 49/53/46 61/66/46 62/67/46 50/54/46
f 50/54/47 62/67/47 63/68/47 51/55/47
f 51/55/48 63/68/48 64/69/48 52/56/48
f 52/56/49 64/69/49 53/57/49 41/44/49
f 53/57/50 65/70/50 66/71/50 54/58/50
f 54/58/51 66/71/51 67/72/51 55/59/51
f 55/59/52 67/72/52 68/73/52 56/60/52
f 56/60/53 68/73/53 69/74/53 57/61/53
f 57/61/54 69/74/54 70/75/54 58/62/54
f 58/62/55 70/75/55 71/76/55 59/63/55
f 59/64/56 71/77/56 72/78/56 60/65/56
f 60/65/57 72/78/57 73/79/57 61/66/57
f 61/66/58 73/79/58 74/80/58 62/67/58
f 62/67/59 74/80/59 75/81/59 63/68/59
f 63/68/60 75/81/60 76/82/60 64/69/60
f 64/69/61 76/82/61 65/70/61 53/57/61
f 65/70/62 77/83/62 78/84/62 66/71/62
f 66/71/63 78/84/63 79/85/63 67/72/63
f 67/72/64 79/85/64 80/86/64 68/73/64
f 68/73/65 80/86/65 81/87/65 69/74/65
f 69/74/66 81/87/66 82/88/66 70/75/66
f 70/75/67 82/88/67 83/89/67 71/76/67
f 71/77/68 83/90/68 84/91/68 72/78/68
f 72/78/69 84/91/69 85/92/69 73/79/69
f 73/79/70 85/92/70 86/93/70 74/80/70
f 74/80/71 86/93/71 87/94/71 75/81/71
f 75/81/72 87/94/72 88/95/72 76/82/72
f 76/82/73 88/95/73 77/83/73 65/70/73
f 77/83/74 89/96/74 90/97/74 78/84/74
f 78/84/75 90/97/75 91/98/75 79/85/75
f 79/85/76 91/98/76 92/99/76 80/86/76
f 80/86/77 92/99/77 93/100/77 81/87/77
f 81/87/78 93/100/78 94/101/78 82/88/78
f 82/88/79 94/101/79 95/102/79 83/89/79
f 83/90/80 95/103/80 96/104/80 84/91/80
f 84/91/81 96/104/81 97/105/81 85/92/81
f 85/92/82 97/105/82 98/106/82 86/93/82
f 86/93/83 98/106/83 99/107/83 87/94/83
f 87/94/84 99/107/84 100/108/84 88/95/84
f 88/95/85 100/108/85 89/96/85 77/83/85
f 89/96/86 101/109/86 102/110/86 90/97/86
f 90/97/87 102/110/87 103/111/87 91/98/87
f 91/98/88 103/111/88 104/112/88 92/99/88
f 92/99/89 104/112/89 105/113/89 93/100/89
f 93/100/90 105/113/90 106/114/90 94/101/90
f 94/101/91 106/114/91 107/115/91 95/102/91
f 95/103/92 107/116/92 108/117/92 96/104/92
f 96/104/93 108/117/93 109/118/93 97/105/93
f 97/105/94 109/118/94 110/119/94 98/106/94
f 98/106/95 110/119/95 111/120/95 99/107/95
f 99/107/96 111/120/96 112/121/96 100/108/96
f 100/108/97 112/121/97 101/109/97 89/96/97
f 101/109/98 113/122/98 114/123/98 102/110/98
f 102/110/99 114/123/99 115/124/99 103/111/99
f 103/111/100 115/124/100 116/125/100 104/112/100
f 104/112/101 116/125/101 117/126/101 105/113/101
f 105/113/102 117/126/102 118/127/102 106/114/102
f 106/114/103 118/127/103 119/128/103 107/115/103
f 107/116/104 119/129/104 120/130/104 108/117/104
f 108/117/105 120/130/105 121/131/105 109/118/105
f 109/118/106 121/131/106 122/132/106 110/119/106
f 110/119/107 122/132/107 123/133/107 111/120/107
f 111/120/108 123/133/108 124/134/108 112/121/108
f 112/121/109 124/134/109 113/122/109 101/109/109
f 113/122/110 125/135/110 126/136/110 114/123/110
f 114/123/111 126/136/111 127/137/111 115/124/111
f 115/124/112 127/137/112 128/138/112 116/125/112
f 116/125/113 128/138/113 129/139/113 117/126/113
f 117/126/114 129/139/114 130/140/114 118/127/114
f 118/127/115 130/140/115 131/141/115 119/128/115
f 119/129/116 131/142/116 132/143/116 120/130/116
f 120/130/117 132/143/117 133/144/117 121/131/117
f 121/131/118 133/144/118 134/145/118 122/132/118
f 122/132/119 134/145/119 135/146/119 123/133/119
f 123/133/120 135/146/120 136/147/120 124/134/120
f 124/134/121 136/147/121 125/135/121 113/122/121
f 125/135/122 137/148/122 138/149/122 126/136/122
f 126/136/123 138/149/123 139/150/123 127/137/123
f 127/137/124 139/150/124 140/151/124 128/138/124
f 128/138/125 140/151/125 141/152/125 129/139/125
f 129/139/126 141/152/126 142/153/126 130/140/126
f 130/140/127 142/153/127 143/154/127 131/141/127
f 131/142/128 143/155/128 144/156/128 132/143/128
f 132/143/129 144/156/129 145/157/129 133/144/129
f 133/144/130 145/157/130 146/158/130 134/145/130
f 134/145/131 146/158/131 147/159/131 135/146/131
f 135/146/132 147/159/132 148/160/132 136/147/132
f 136/147/133 148/160/133 137/148/133 125/135/133
f 137/148/134 149/161/134 150/162/134 138/149/134
f 138/149/135 150/162/135 151/163/135 139/150/135
f 139/150/136 151/163/136 152/164/136 140/151/136
f 140/151/137 152/164/137 153/165/137 141/152/137
f 141/152/138 153/165/138 154/166/138 142/153/138
f 142/153/139 154/166/139 155/167/139 143/154/139
f 143/155/140 155/168/140 156/169/140 144/156/140
f 144/156/141 156/169/141 157/170/141 145/157/141
f 145/157/142 157/170/142 158/171/142 146/158/142
f 146/158/143 158/171/143 159/172/143 147/159/143
f 147/159/144 159/172/144 160/173/144 148/160/144
f 148/160/145 160/173/145 149/161/145 137/148/145
f 149/161/146 161/174/146 162/175/146 150/162/146
f 150/162/147 162/175/147 163/176/147 151/163/147
f 151/163/148 163/176/148 164/177/148 152/164/148
f 152/164/149 164/177/149 165/178/149 153/165/149
f 153/165/150 165/178/150 166/179/150 154/166/150
f 154/166/151 166/179/151 167/180/151 155/167/151
f 155/168/152 167/181/152 168/182/152 156/169/152
f 156/169/153 168/182/153 169/183/153 157/170/153
f 157/170/154 169/183/154 170/184/154 158/171/154
f 158/171/155 170/184/155 171/185/155 159/172/155
f 159/172/156 171/185/156 172/186/156 160/173/156
f 160/173/157 172/186/157 161/174/157 149/161/157
f 161/174/158 173/187/158 174/188/158 162/175/158
f 162/175/159 174/188/159 175/189/159 163/176/159
f 163/176/160 175/189/160 176/190/160 164/177/160
f 164/177/161 176/190/161 177/191/161 165/178/161
f 165/178/162 177/191/162 178/192/162 166/179/162
f 166/179/163 178/192/163 179/193/163 167/180/163
f 167/181/164 179/194/164 180/195/164 168/182/164
f 168/182/165 180/195/165 181/196/165 169/183/165
f 169/183/166 181/196/166 182/197/166 170/184/166
f 170/184/167 182/197/167 183/198/167 171/185/167
f 171/185/168 183/198/168 184/199/168 172/186/168
f 172/186/169 184/199/169 173/187/169 161/174/169
f 173/187/170 185/200/170 186/201/170 174/188/170
f 174/188/171 186/201/171 187/202/171 175/189/171
f 175/189/172 187/202/172 188/203/172 176/190/172
f 176/190/173 188/203/173 189/204/173 177/191/173
f 177/191/174 189/204/174 190/205/174 178/192/174
f 178/192/175 190/205/175 191/206/175 179/193/175
f 179/194/176 191/207/176 192/208/176 180/195/176
f 180/195/177 192/208/177 193/209/177 181/196/177
f 181/196/178 193/209/178 194/210/178 182/197/178
f 182/197/179 194/210/179 195/211/179 183/198/179
f 183/198/180 195/211/180 196/212/180 184/199/180
f 184/199/181 196/212/181 185/200/181 173/187/181
f 185/200/182 197/213/182 198/214/182 186/201/182
f 186/201/183 198/214/183 199/215/183 187/202/183
f 187/202/184 199/215/184 200/216/184 188/203/184
f 188/203/185 200/216/185 201/217/185 189/204/185
f 189/204/186 201/217/186 202/218/186 190/205/186
f 190/205/187 202/218/187 203/219/187 191/206/187
f 191/207/188 203/220/188 204/221/188 192/208/188
f 192/208/189 204/221/189 205/222/189 193/209/189
f 193/209/190 205/222/190 206/223/190 194/210/190
f 194/210/191 206/223/191 207/224/191 195/211/191
f 195/211/192 207/224/192 208/225/192 196/212/192
f 196/212/193 208/225/193 197/213/193 185/200/193
f 197/213/194 209/226/194 210/227/194 198/214/194
f 198/214/195 210/227/195 211/228/195 199/215/195
f 199/215/196 211/228/196 212/229/196 200/216/196
f 200/216/197 212/229/197 213/230/197 201/217/197
f 201/217/198 213/230/198 214/231/198 202/218/198
f 202/218/199 214/231/199 215/232/199 203/219/199
f 203/220/200 215/233/200 216/234/200 204/221/200
f 204/221/201 216/234/201 217/235/201 205/222/201
f 205/222/202 217/235/202 218/236/202 206/223/202
f 206/223/203 218/236/203 219/237/203 207/224/203
f 207/224/204 219/237/204 220/238/204 208/225/204
f 208/225/205 220/238/205 209/226/205 197/213/205
f 209/226/206 221/239/206 222/240/206 210/227/206
f 210/227/207 222/240/207 223/241/207 211/228/207
f 211/228/208 223/241/208 224/242/208 212/229/208
f 212/229/209 224/242/209 225/243/209 213/230/209
f 213/230/210 225/243/210 226/244/210 214/231/210
f 214/231/211 226/244/211 227/245/211 215/232/211
f 215/233/212 227/246/212 228/247/212 216/234/212
f 216/234/213 228/247/213 229/248/213 217/235/213
f 217/235/214 229/248/214 230/249/214 218/236/214
f 218/236/215 230/249/215 231/250/215 219/237/215
f 219/237/216 231/250/216 232/251/216 220/238/216
f 220/238/217 232/251/217 221/239/217 209/226/217
f 221/239/218 233/252/218 234/253/218 222/240/218
f 222/240/219 234/253/219 235/254/219 223/241/219
f 223/241/220 235/254/220 236/255/220 224/242/220
f 224/242/221 236/255/221 237/256/221 225/243/221
f 225/243/222 237/256/222 238/257/222 226/244/222
f 226/244/223 238/257/223 239/258/223 227/245/223
f 227/246/224 239/259/224 240/260/224 228/247/224
f 228/247/225 240/260/225 241/261/225 229/248/225
f 229/248/226 241/261/226 242/262/226 230/249/226
f 230/249/227 242/262/227 243/263/227 231/250/227
f 231/250/228 243/263/228 244/264/228 232/251/228
f 232/251/229 244/264/229 233/252/229 221/239/229
f 233/252/230 245/265/230 246/266/230 234/253/230
f 234/253/231 246/266/231 247/267/231 235/254/231
f 235/254/232 247/267/232 248/268/232 236/255/232
f 236/255/233 248/268/233 249/269/233 237/256/233
f 237/256/234 249/269/234 250/270/234 238/257/234
f 238/257/235 250/270/235 251/271/235 239/258/235
f 239/259/236 251/272/236 252/273/236 240/260/236
f 240/260/237 252/273/237 253/274/237 241/261/237
f 241/261/238 253/274/238 254/275/238 242/262/238
f 242/262/239 254/275/239 255/276/239 243/263/239
f 243/263/240 255/276/240 256/277/240 244/264/240
f 244/264/241 256/277/241 245/265/241 233/252/241
f 245/265/242 257/278/242 258/279/242 246/266/242
f 246/266/243 258/279/243 259/280/243 247/267/243
f 247/267/244 259/280/244 260/281/244 248/268/244
f 248/268/245 260/281/245 261/282/245 249/269/245
f 249/269/246 261/282/246 262/283/246 250/270/246
f 250/270/247 262/283/247 263/284/247 251/271/247
f 251/272/248 263/285/248 264/286/248 252/273/248
f 252/273/249 264/286/249 265/287/249 253/274/249
f 253/274/250 265/287/250 266/288/250 254/275/250
f 254/275/251 266/288/251 267/289/251 255/276/251
f 255/276/252 267/289/252 268/290/252 256/277/252
f 256/277/253 268/290/253 257/278/253 245/265/253
f 257/278/254 269/291/254 270/292/254 258/279/254
f 258/279/255 270/292/255 271/293/255 259/280/255
f 259/280/256 271/293/256 272/294/256 260/281/256
f 260/281/257 272/294/257 273/295/257 261/282/257
f 261/282/258 273/295/258 274/296/258 262/283/258
f 262/283/259 274/296/259 275/297/259 263/284/259
f 263/285/260 275/298/260 276/299/260 264/286/260
f 264/286/261 276/299/261 277/300/261 265/287/261
f 265/287/262 277/300/262 278/301/262 266/288/262
f 266/288/263 278/301/263 279/302/263 267/289/263
f 267/289/264 279/302/264 280/303/264 268/290/264
f 268/290/265 280/303/265 269/291/265 257/278/265
f 269/291/266 281/304/266 282/305/266 270/292/266
f 270/292/267 282/305/267 283/306/267 271/293/267
f 271/293/268 283/306/268 284/307/268 272/294/268
f 272/294/269 284/307/269 285/308/269 273/295/269
f 273/295/270 285/308/270 286/309/270 274/296/270
f 274/296/271 286/309/271 287/310/271 275/297/271
f 275/298/272 287/311/272 288/312/272 276/299/272
f 276/299/273 288/312/273 289/313/273 277/300/273
f 277/300/274 289/313/274 290/314/274 278/301/274
f 278/301/275 290/314/275 291/315/275 279/302/275
f 279/302/276 291/315/276 292/316/276 280/303/276
f 280/303/277 292/316/277 281/304/277 269/291/277
f 281/304/278 293/317/278 294/318/278 282/305/278
f 282/305/279 294/318/279 295/319/279 283/306/279
f 283/306/280 295/319/280 296/320/280 284/307/280
f 284/307/281 296/320/281 297/321/281 285/308/281
f 285/308/282 297/321/282 298/322/282 286/309/282
f 286/309/283 298/322/283 299/323/283 287/310/283
f 287/311/284 299/324/284 300/325/284 288/312/284
f 288/312/285 300/325/285 301/326/285 289/313/285
f 289/313/286 301/326/286 302/327/286 290/314/286
f 290/314/287 302/327/287 303/328/287 291/315/287
f 291/315/288 303/328/288 304/329/288 292/316/288
f 292/316/289 304/329/289 293/317/289 281/304/289
f 293/330/7 305/331/7 306/332/7 294/333/7
f 294/333/6 306/332/6 307/334/6 295/335/6
f 295/335/5 307/334/5 308/336/5 296/337/5
f 296/337/4 308/336/4 309/338/4 297/339/4
f 297/339/3 309/338/3 310/340/3 298/341/3
f 298/341/2 310/340/2 311/342/2 299/343/2
f 299/344/13 311/345/13 312/346/13 300/347/13
f 300/347/12 312/346/12 313/348/12 301/349/12
f 301/349/11 313/348/11 314/350/11 302/351/11
f 302/351/10 314/350/10 315/352/10 303/353/10
f 303/353/9 315/352/9 316/354/9 304/355/9
f 304/355/8 316/354/8 305/331/8 293/330/8
f 305/331/19 317/356/19 318/357/19 306/332/19
f 306/332/18 318/357/18 319/358/18 307/334/18
f 307/334/17 319/358/17 320/359/17 308/336/17
f 308/336/16 320/359/16 321/360/16 309/338/16
f 309/338/15 321/360/15 322/361/15 310/340/15
f 310/340/14 322/361/14 323/362/14 311/342/14
f 311/345/25 323/363/25 324/364/25 312/346/25
f 312/346/24 324/364/24 325/365/24 313/348/24
f 313/348/23 325/365/23 326/366/23 314/350/23
f 314/350/22 326/366/22 327/367/22 315/352/22
f 315/352/21 327/367/21 328/368/21 316/354/21
f 316/354/20 328/368/20 317/356/20 305/331/20
f 317/356/31 329/369/31 330/370/31 318/357/31
f 318/357/30 330/370/30 331/371/30 319/358/30
f 319/358/29 331/371/29 332/372/29 320/359/29
f 320/359/28 332/372/28 333/373/28 321/360/28
f 321/360/27 333/373/27 334/374/27 322/361/27
f 322/361/26 334/374/26 335/375/26 323/362/26
f 323/363/37 335/376/37 336/377/37 324/364/37
f 324/364/36 336/377/36 337/378/36 325/365/36
f 325/365/35 337/378/35 338/379/35 326/366/35
f 326/366/34 338/379/34 339/380/34 327/367/34
f 327/367/33 339/380/33 340/381/33 328/368/33
f 328/368/32 340/381/32 329/369/32 317/356/32
f 329/369/43 341/382/43 342/383/43 330/370/43
f 330/370/42 342/383/42 343/384/42 331/371/42
f 331/371/41 343/384/41 344/385/41 332/372/41
f 332/372/40 344/385/40 345/386/40 333/373/40
f 333/373/39 345/386/39 346/387/39 334/374/39
f 334/374/38 346/387/38 347/388/38 335/375/38
f 335/376/49 347/389/49 348/390/49 336/377/49
f 336/377/48 348/390/48 349/391/48 337/378/48
f 337/378/47 349/391/47 350/392/47 338/379/47
f 338/379/46 350/392/46 351/393/46 339/380/46
f 339/380/45 351/393/45 352/394/45 340/381/45
f 340/381/44 352/394/44 341/382/44 329/369/44
f 341/382/55 353/395/55 354/396/55 342/383/55
f 342/383/54 354/396/54 355/397/54 343/384/54
f 343/384/53 355/397/53 356/398/53 344/385/53
f 344/385/52 356/398/52 357/399/52 345/386/52
f 345/386/51 357/399/51 358/400/51 346/387/51
f 346/387/50 358/400/50 359/401/50 347/388/50
f 347/389/61 359/402/61 360/403/61 348/390/61
f 348/390/60 360/403/60 361/404/60 349/391/60
f 349/391/59 361/404/59 362/405/59 350/392/59
f 350/392/58 362/405/58 363/406/58 351/393/58
f 351/393/57 363/406/57 364/407/57 352/394/57
f 352/394/56 364/407/56 353/395/56 341/382/56
f 353/395/67 365/408/67 366/409/67 354/396/67
f 354/396/66 366/409/66 367/410/66 355/397/66
f 355/397/65 367/410/65 368/411/65 356/398/65
f 356/398/64 368/411/64 369/412/64 357/399/64
f 357/399/63 369/412/63 370/413/63 358/400/63
f 358/400/62 370/413/62 371/414/62 359/401/62
f 359/402/73 371/415/73 372/416/73 360/403/73
f 360/403/72 372/416/72 373/417/72 361/404/72
f 361/404/71 373/417/71 374/418/71 362/405/71
f 362/405/70 374/418/70 375/419/70 363/406/70
f 363/406/69 375/419/69 376/420/69 364/407/69
f 364/407/68 376/420/68 365/408/68 353/395/68
f 365/408/79 377/421/79 378/422/79 366/409/79
f 366/409/78 378/422/78 379/423/78 367/410/78
f 367/410/77 379/423/77 380/424/77 368/411/77
f 368/411/76 380/424/76 381/425/76 369/412/76
f 369/412/75 381/425/75 382/426/75 370/413/75
f 370/413/74 382/426/74 383/427/74 371/414/74
f 371/415/85 383/428/85 384/429/85 372/416/85
f 372/416/84 384/429/84 385/430/84 373/417/84
f 373/417/83 385/430/83 386/431/83 374/418/83
f 374/418/82 386/431/82 387/432/82 375/419/82
f 375/419/81 387/432/81 388/433/81 376/420/81
f 376/420/80 388/433/80 377/421/80 365/408/80
f 377/421/91 389/434/91 390/435/91 378/422/91
f 378/422/290 390/435/290 391/436/290 379/423/290
f 379/423/89 391/436/89 392/437/89 380/424/89
f 380/424/88 392/437/88 393/438/88 381/425/88
f 381/425/87 393/438/87 394/439/87 382/426/87
f 382/426/86 394/439/86 395/440/86 383/427/86
f 383/428/97 395/441/97 396/442/97 384/429/97
f 384/429/96 396/442/96 397/443/96 385/430/96
f 385/430/95 397/443/95 398/444/95 386/431/95
f 386/431/94 398/444/94 399/445/94 387/432/94
f 387/432/93 399/445/93 400/446/93 388/433/93
f 388/433/92 400/446/92 389/434/92 377/421/92
f 389/434/103 401/447/103 402/448/103 390/435/103
f 390/435/102 402/448/102 403/449/102 391/436/102
f 391/436/101 403/449/101 404/450/101 392/437/101
f 392/437/100 404/450/100 405/451/100 393/438/100
f 393/438/99 405/451/99 406/452/99 394/439/99
f 394/439/98 406/452/98 407/453/98 395/440/98
f 395/441/109 407/454/109 408/455/109 396/442/109
f 396/442/108 408/455/108 409/456/108 397/443/108
f 397/443/107 409/456/107 410/457/107 398/444/107
f 398/444/106 410/457/106 411/458/106 399/445/106
f 399/445/105 411/458/105 412/459/105 400/446/105
f 400/446/104 412/459/104 401/447/104 389/434/104
f 401/447/115 413/460/115 414/461/115 402/448/115
f 402/448/114 414/461/114 415/462/114 403/449/114
f 403/449/113 415/462/113 416/463/113 404/450/113
f 404/450/112 416/463/112 417/464/112 405/451/112
f 405/451/111 417/464/111 418/465/111 406/452/111
f 406/452/110 418/465/110 419/466/110 407/453/110
f 407/454/121 419/467/121 420/468/121 408/455/121
f 408/455/120 420/468/120 421/469/120 409/456/120
f 409/456/119 421/469/119 422/470/119 410/457/119
f 410/457/118 422/470/118 423/471/118 411/458/118
f 411/458/117 423/471/117 424/472/117 412/459/117
f 412/459/116 424/472/116 413/460/116 401/447/116
f 413/460/127 425/473/127 426/474/127 414/461/127
f 414/461/126 426/474/126 427/475/126 415/462/126
f 415/462/125 427/475/125 428/476/125 416/463/125
f 416/463/124 428/476/124 429/477/124 417/464/124
f 417/464/123 429/477/123 430/478/123 418/465/123
f 418/465/122 430/478/122 431/479/122 419/466/122
f 419/467/133 431/480/133 432/481/133 420/468/133
f 420/468/132 432/481/132 433/482/132 421/469/132
f 421/469/131 433/482/131 434/483/131 422/470/131
f 422/470/130 434/483/130 435/484/130 423/471/130
f 423/471/129 435/484/129 436/485/129 424/472/129
f 424/472/128 436/485/128 425/473/128 413/460/128
f 425/473/139 437/486/139 438/487/139 426/474/139
f 426/474/138 438/487/138 439/488/138 427/475/138
f 427/475/137 439/488/137 440/489/137 428/476/137
f 428/476/136 440/489/136 441/490/136 429/477/136
f 429/477/135 441/490/135 442/491/135 430/478/135
f 430/478/134 442/491/134 443/492/134 431/479/134
f 431/480/145 443/493/145 444/494/145 432/481/145
f 432/481/144 444/494/144 445/495/144 433/482/144
f 433/482/143 445/495/143 446/496/143 434/483/143
f 434/483/142 446/496/142 447/497/142 435/484/142
f 435/484/141 447/497/141 448/498/141 436/485/141
f 436/485/140 448/498/140 437/486/140 425/473/140
f 437/486/291 449/499/291 450/500/291 438/487/291
f 438/487/150 450/500/150 451/501/150 439/488/150
f 439/488/149 451/501/149 452/502/149 440/489/149
f 440/489/148 452/502/148 453/503/148 441/490/148
f 441/490/147 453/503/147 454/504/147 442/491/147
f 442/491/146 454/504/146 455/505/146 443/492/146
f 443/493/157 455/506/157 456/507/157 444/494/157
f 444/494/156 456/507/156 457/508/156 445/495/156
f 445/495/155 457/508/155 458/509/155 446/496/155
f 446/496/154 458/509/154 459/510/154 447/497/154
f 447/497/153 459/510/153 460/511/153 448/498/153
f 448/498/152 460/511/152 449/499/152 437/486/152
f 449/499/163 461/512/163 462/513/163 450/500/163
f 450/500/162 462/513/162 463/514/162 451/501/162
f 451/501/161 463/514/161 464/515/161 452/502/161
f 452/502/160 464/515/160 465/516/160 453/503/160
f 453/503/159 465/516/159 466/517/159 454/504/159
f 454/504/158 466/517/158 467/518/158 455/505/158
f 455/506/169 467/519/169 468/520/169 456/507/169
f 456/507/168 468/520/168 469/521/168 457/508/168
f 457/508/167 469/521/167 470/522/167 458/509/167
f 458/509/166 470/522/166 471/523/166 459/510/166
f 459/510/165 471/523/165 472/524/165 460/511/165
f 460/511/164 472/524/164 461/512/164 449/499/164
f 461/512/175 473/525/175 474/526/175 462/513/175
f 462/513/174 474/526/174 475/527/174 463/514/174
f 463/514/173 475/527/173 476/528/173 464/515/173
f 464/515/172 476/528/172 477/529/172 465/516/172
f 465/516/171 477/529/171 478/530/171 466/517/171
f 466/517/170 478/530/170 479/531/170 467/518/170
f 467/519/181 479/532/181 480/533/181 468/520/181
f 468/520/180 480/533/180 481/534/180 469/521/180
f 469/521/179 481/534/179 482/535/179 470/522/179
f 470/522/178 482/535/178 483/536/178 471/523/178
f 471/523/177 483/536/177 484/537/177 472/524/177
f 472/524/176 484/537/176 473/525/176 461/512/176
f 473/525/187 485/538/187 486/539/187 474/526/187
f 474/526/186 486/539/186 487/540/186 475/527/186
f 475/527/185 487/540/185 488/541/185 476/528/185
f 476/528/184 488/541/184 489/542/184 477/529/184
f 477/529/183 489/542/183 490/543/183 478/530/183
f 478/530/182 490/543/182 491/544/182 479/531/182
f 479/532/193 491/545/193 492/546/193 480/533/193
f 480/533/192 492/546/192 493/547/192 481/534/192
f 481/534/191 493/547/191 494/548/191 482/535/191
f 482/535/190 494/548/190 495/549/190 483/536/190
f 483/536/189 495/549/189 496/550/189 484/537/189
f 484/537/188 496/550/188 485/538/188 473/525/188
f 485/538/199 497/551/199 498/552/199 486/539/199
f 486/539/198 498/552/198 499/553/198 487/540/198
f 487/540/197 499/553/197 500/554/197 488/541/197
f 488/541/196 500/554/196 501/555/196 489/542/196
f 489/542/195 501/555/195 502/556/195 490/543/195
f 490/543/194 502/556/194 503/557/194 491/544/194
f 491/545/292 503/558/292 504/559/292 492/546/292
f 492/546/204 504/559/204 505/560/204 493/547/204
f 493/547/203 505/560/203 506/561/203 494/548/203
f 494/548/202 506/561/202 507/562/202 495/549/202
f 495/549/201 507/562/201 508/563/201 496/550/201
f 496/550/200 508/563/200 497/551/200 485/538/200
f 497/551/211 509/564/211 510/565/211 498/552/211
f 498/552/210 510/565/210 511/566/210 499/553/210
f 499/553/209 511/566/209 512/567/209 500/554/209
f 500/554/208 512/567/208 513/568/208 501/555/208
f 501/555/207 513/568/207 514/569/207 502/556/207
f 502/556/206 514/569/206 515/570/206 503/557/206
f 503/558/217 515/571/217 516/572/217 504/559/217
f 504/559/216 516/572/216 517/573/216 505/560/216
f 505/560/215 517/573/215 518/574/215 506/561/215
f 506/561/214 518/574/214 519/575/214 507/562/214
f 507/562/213 519/575/213 520/576/213 508/563/213
f 508/563/212 520/576/212 509/564/212 497/551/212
f 509/564/223 521/577/223 522/578/223 510/565/223
f 510/565/222 522/578/222 523/579/222 511/566/222
f 511/566/221 523/579/221 524/580/221 512/567/221
f 512/567/220 524/580/220 525/581/220 513/568/220
f 513/568/293 525/581/293 526/582/293 514/569/293
f 514/569/218 526/582/218 527/583/218 515/570/218
f 515/571/229 527/584/229 528/585/229 516/572/229
f 516/572/228 528/585/228 529/586/228 517/573/228
f 517/573/227 529/586/227 530/587/227 518/574/227
f 518/574/226 530/587/226 531/588/226 519/575/226
f 519/575/225 531/588/225 532/589/225 520/576/225
f 520/576/224 532/589/224 521/577/224 509/564/224
f 521/577/235 533/590/235 534/591/235 522/578/235
f 522/578/234 534/591/234 535/592/234 523/579/234
f 523/579/233 535/592/233 536/593/233 524/580/233
f 524/580/232 536/593/232 537/594/232 525/581/232
f 525/581/231 537/594/231 538/595/231 526/582/231
f 526/582/230 538/595/230 539/596/230 527/583/230
f 527/584/241 539/597/241 540/598/241 528/585/241
f 528/585/240 540/598/240 541/599/240 529/586/240
f 529/586/239 541/599/239 542/600/239 530/587/239
f 530/587/238 542/600/238 543/601/238 531/588/238
f 531/588/237 543/601/237 544/602/237 532/589/237
f 532/589/236 544/602/236 533/590/236 521/577/236
f 533/590/247 545/603/247 546/604/247 534/591/247
f 534/591/246 546/604/246 547/605/246 535/592/246
f 535/592/245 547/605/245 548/606/245 536/593/245
f 536/593/244 548/606/244 549/607/244 537/594/244
f 537/594/243 549/607/243 550/608/243 538/595/243
f 538/595/242 550/608/242 551/609/242 539/596/242
f 539/597/253 551/610/253 552/611/253 540/598/253
f 540/598/252 552/611/252 553/612/252 541/599/252
f 541/599/251 553/612/251 554/613/251 542/600/251
f 542/600/250 554/613/250 555/614/250 543/601/250
f 543/601/249 555/614/249 556/615/249 544/602/249
f 544/602/248 556/615/248 545/603/248 533/590/248
f 545/603/259 557/616/259 558/617/259 546/604/259
f 546/604/258 558/617/258 559/618/258 547/605/258
f 547/605/257 559/618/257 560/619/257 548/606/257
f 548/606/256 560/619/256 561/620/256 549/607/256
f 549/607/255 561/620/255 562/621/255 550/608/255
f 550/608/254 562/621/254 563/622/254 551/609/254
f 551/610/265 563/623/265 564/624/265 552/611/265
f 552/611/264 564/624/264 565/625/264 553/612/264
f 553/612/263 565/625/263 566/626/263 554/613/263
f 554/613/262 566/626/262 567/627/262 555/614/262
f 555/614/261 567/627/261 568/628/261 556/615/261
f 556/615/260 568/628/260 557/616/260 545/603/260
f 557/616/271 569/629/271 570/630/271 558/617/271
f 558/617/270 570/630/270 571/631/270 559/618/270
f 559/618/269 571/631/269 572/632/269 560/619/269
f 560/619/268 572/632/268 573/633/268 561/620/268
f 561/620/267 573/633/267 574/634/267 562/621/267
f 562/621/266 574/634/266 575/635/266 563/622/266
f 563/623/277 575/636/277 576/637/277 564/624/277
f 564/624/276 576/637/276 577/638/276 565/625/276
f 565/625/275 577/638/275 578/639/275 566/626/275
f 566/626/274 578/639/274 579/640/274 567/627/274
f 567/627/273 579/640/273 580/641/273 568/628/273
f 568/628/272 580/641/272 569/629/272 557/616/272
f 569/629/283 5/5/283 6/8/283 570/630/283
f 570/630/282 6/8/282 7/10/282 571/631/282
f 571/631/281 7/10/281 8/12/281 572/632/281
f 572/632/280 8/12/280 9/14/280 573/633/280
f 573/633/279 9/14/279 10/16/279 574/634/279
f 574/634/278 10/16/278 11/18/278 575/635/278
f 575/636/289 11/19/289 12/22/289 576/637/289
f 576/637/288 12/22/288 13/24/288 577/638/288
f 577/638/287 13/24/287 14/26/287 578/639/287
f 578/639/286 14/26/286 15/28/286 579/640/286
f 579/640/285 15/28/285 16/30/285 580/641/285
f 580/641/284 16/30/284 5/5/284 569/629/284
